<svg width="417px" height="256px" viewBox="0 0 417 256" version="1.1" xmlns="http://www.w3.org/2000/svg" xmlns:xlink="http://www.w3.org/1999/xlink">
    <path d="M416.5,191.5 C416.5,226.844 387.844,255.5 352.5,255.5 L352.5,256 L80.5,256 C36.312,256 0.5,220.187 0.5,176 C0.5,137.25 28.063,104.937 64.656,97.594 C64.656,97.063 64.5,96.563 64.5,96 C64.5,42.969 107.469,0 160.5,0 C197.938,0 230,21.625 245.844,52.875 C254.219,49.937 263.094,48 272.5,48 C316.344,48 351.844,83.25 352.406,127 L352.5,127 L352.5,127.5 C387.844,127.5 416.5,156.156 416.5,191.5 Z" id="Shape" stroke="none" fill="#FFFFFF" fill-rule="nonzero"></path>
</svg>